<?xml version="1.0" encoding="UTF-8" standalone="no"?>
<!-- Created with Inkscape (http://www.inkscape.org/) -->

<svg
   xmlns:dc="http://purl.org/dc/elements/1.1/"
   xmlns:cc="http://creativecommons.org/ns#"
   xmlns:rdf="http://www.w3.org/1999/02/22-rdf-syntax-ns#"
   xmlns:svg="http://www.w3.org/2000/svg"
   xmlns="http://www.w3.org/2000/svg"
   xmlns:xlink="http://www.w3.org/1999/xlink"
   xmlns:sodipodi="http://sodipodi.sourceforge.net/DTD/sodipodi-0.dtd"
   xmlns:inkscape="http://www.inkscape.org/namespaces/inkscape"
   sodipodi:docname="oceanographymap.svg"
   inkscape:version="0.48.2 r9819"
   version="1.1"
   id="svg2"
   height="595.71112"
   width="1032.686"
   inkscape:export-filename="/Users/wilkox/Dropbox/thesis/introduction/oceanographymap.png"
   inkscape:export-xdpi="500"
   inkscape:export-ydpi="500">
  <sodipodi:namedview
     id="base"
     pagecolor="#ffffff"
     bordercolor="#666666"
     borderopacity="1.0"
     inkscape:pageopacity="0.0"
     inkscape:pageshadow="2"
     inkscape:zoom="0.90509668"
     inkscape:cx="497.36319"
     inkscape:cy="295.07458"
     inkscape:document-units="px"
     inkscape:current-layer="layer1"
     showgrid="false"
     inkscape:window-width="1440"
     inkscape:window-height="852"
     inkscape:window-x="0"
     inkscape:window-y="0"
     inkscape:window-maximized="1"
     showguides="true"
     inkscape:guide-bbox="true"
     fit-margin-top="3"
     fit-margin-left="3"
     fit-margin-right="3"
     fit-margin-bottom="3" />
  <defs
     id="defs4">
    <linearGradient
       inkscape:collect="always"
       id="linearGradient8246">
      <stop
         style="stop-color:#ffffff;stop-opacity:1;"
         offset="0"
         id="stop8248" />
      <stop
         style="stop-color:#ffffff;stop-opacity:0;"
         offset="1"
         id="stop8250" />
    </linearGradient>
    <marker
       inkscape:stockid="TriangleOutL"
       orient="auto"
       refY="0.0"
       refX="0.0"
       id="TriangleOutL"
       style="overflow:visible">
      <path
         id="path3997"
         d="M 5.77,0.0 L -2.88,5.0 L -2.88,-5.0 L 5.77,0.0 z "
         style="fill-rule:evenodd;stroke:#000000;stroke-width:1.0pt;marker-start:none"
         transform="scale(0.8)" />
    </marker>
    <marker
       inkscape:stockid="Arrow1Send"
       orient="auto"
       refY="0"
       refX="0"
       id="Arrow1Send"
       style="overflow:visible">
      <path
         id="path3869"
         d="M 0,0 5,-5 -12.5,0 5,5 0,0 z"
         style="fill-rule:evenodd;stroke:#000000;stroke-width:1pt;marker-start:none"
         transform="matrix(-0.2,0,0,-0.2,-1.2,0)"
         inkscape:connector-curvature="0" />
    </marker>
    <marker
       inkscape:stockid="Arrow1Mend"
       orient="auto"
       refY="0"
       refX="0"
       id="Arrow1Mend"
       style="overflow:visible">
      <path
         id="path3863"
         d="M 0,0 5,-5 -12.5,0 5,5 0,0 z"
         style="fill-rule:evenodd;stroke:#000000;stroke-width:1pt;marker-start:none"
         transform="matrix(-0.4,0,0,-0.4,-4,0)"
         inkscape:connector-curvature="0" />
    </marker>
    <linearGradient
       id="linearGradient5656">
      <stop
         style="stop-color:#ffffff;stop-opacity:1;"
         offset="0"
         id="stop5658" />
      <stop
         style="stop-color:#000000;stop-opacity:0;"
         offset="1"
         id="stop5660" />
    </linearGradient>
    <inkscape:path-effect
       bendpath4="m 115,392.94981 0,60.03737"
       bendpath3="m 115,452.98718 39.17063,0"
       bendpath2="m 154.17063,392.94981 0,60.03737"
       bendpath1="m 115,392.94981 39.17063,0"
       xx="true"
       yy="true"
       is_visible="true"
       id="path-effect4320"
       effect="envelope" />
    <marker
       style="overflow:visible"
       id="Arrow1Lend"
       refX="0"
       refY="0"
       orient="auto"
       inkscape:stockid="Arrow1Lend">
      <path
         transform="matrix(-0.8,0,0,-0.8,-10,0)"
         style="fill-rule:evenodd;stroke:#000000;stroke-width:1pt;marker-start:none"
         d="M 0,0 5,-5 -12.5,0 5,5 0,0 z"
         id="path3857"
         inkscape:connector-curvature="0" />
    </marker>
    <marker
       style="overflow:visible"
       id="Tail"
       refX="0"
       refY="0"
       orient="auto"
       inkscape:stockid="Tail">
      <g
         transform="scale(-1.2,-1.2)"
         id="g4079">
        <path
           style="fill:none;stroke:#000000;stroke-width:0.80000001;stroke-linecap:round;marker-start:none;marker-end:none"
           d="M -3.8048674,-3.9585227 0.54352094,0"
           id="path4081"
           inkscape:connector-curvature="0" />
        <path
           style="fill:none;stroke:#000000;stroke-width:0.80000001;stroke-linecap:round;marker-start:none;marker-end:none"
           d="M -1.2866832,-3.9585227 3.0617053,0"
           id="path4083"
           inkscape:connector-curvature="0" />
        <path
           style="fill:none;stroke:#000000;stroke-width:0.80000001;stroke-linecap:round;marker-start:none;marker-end:none"
           d="M 1.3053582,-3.9585227 5.6537466,0"
           id="path4085"
           inkscape:connector-curvature="0" />
        <path
           style="fill:none;stroke:#000000;stroke-width:0.80000001;stroke-linecap:round;marker-start:none;marker-end:none"
           d="M -3.8048674,4.1775838 0.54352094,0.21974226"
           id="path4087"
           inkscape:connector-curvature="0" />
        <path
           style="fill:none;stroke:#000000;stroke-width:0.80000001;stroke-linecap:round;marker-start:none;marker-end:none"
           d="M -1.2866832,4.1775838 3.0617053,0.21974226"
           id="path4089"
           inkscape:connector-curvature="0" />
        <path
           style="fill:none;stroke:#000000;stroke-width:0.80000001;stroke-linecap:round;marker-start:none;marker-end:none"
           d="M 1.3053582,4.1775838 5.6537466,0.21974226"
           id="path4091"
           inkscape:connector-curvature="0" />
      </g>
    </marker>
    <radialGradient
       inkscape:collect="always"
       xlink:href="#linearGradient8246"
       id="radialGradient8252"
       cx="572.867"
       cy="283.03732"
       fx="572.867"
       fy="283.03732"
       r="64.63398"
       gradientTransform="matrix(3.2563831,-0.00735278,0.00524943,2.3248428,-1294.0932,-370.76778)"
       gradientUnits="userSpaceOnUse" />
    <filter
       inkscape:collect="always"
       id="filter8258"
       x="-0.30352858"
       width="1.6070572"
       y="-0.50732634"
       height="2.0146527">
      <feGaussianBlur
         inkscape:collect="always"
         stdDeviation="16.34855"
         id="feGaussianBlur8260" />
    </filter>
    <filter
       inkscape:collect="always"
       id="filter8800">
      <feGaussianBlur
         inkscape:collect="always"
         stdDeviation="1.3319343"
         id="feGaussianBlur8802" />
    </filter>
  </defs>
  <metadata
     id="metadata7">
    <rdf:RDF>
      <cc:Work
         rdf:about="">
        <dc:format>image/svg+xml</dc:format>
        <dc:type
           rdf:resource="http://purl.org/dc/dcmitype/StillImage" />
        <dc:title></dc:title>
      </cc:Work>
    </rdf:RDF>
  </metadata>
  <g
     transform="translate(-4.5309175,-350.13376)"
     id="layer1"
     inkscape:groupmode="layer"
     inkscape:label="Layer 1">
    <g
       id="g8804"
       transform="matrix(1.5550845,0,0,1.4661143,-73.040475,-348.52575)">
      <path
         transform="matrix(1,0,0,0.40031349,0,419.37821)"
         inkscape:connector-curvature="0"
         style="fill:#537965;fill-opacity:0.79710143;stroke:#8f8f8f;stroke-width:0.93034506;stroke-opacity:1;filter:url(#filter8800)"
         d="m 408.63248,705.32907 -8.78906,33.71094 -5.625,-0.0312 12.03125,12.0625 12.0625,12.0625 12.34375,-11.96875 12.3125,-11.96875 -5.625,-0.0312 -8.98438,-33.83594 -19.72656,0 z"
         id="path8268"
         sodipodi:nodetypes="ccccccccccc" />
      <path
         sodipodi:nodetypes="ccccccccccc"
         id="path8794"
         d="m 408.63248,699.32907 -8.78906,13.49495 -5.625,-0.0125 12.03125,4.82879 12.0625,4.82878 12.34375,-4.79126 12.3125,-4.79125 -5.625,-0.0125 -8.98438,-13.54498 -19.72656,0 z"
         style="fill:#537965;fill-opacity:0.79710143;stroke:#8f8f8f;stroke-width:0.5886324;stroke-opacity:1"
         inkscape:connector-curvature="0" />
    </g>
    <path
       inkscape:connector-curvature="0"
       id="path3006"
       d="m 28.27193,509.88977 1004.64497,0"
       style="fill:none;stroke:#000080;stroke-width:2.5999999;stroke-linecap:butt;stroke-linejoin:miter;stroke-miterlimit:4;stroke-opacity:1;stroke-dasharray:none" />
    <text
       transform="scale(1.0174136,0.98288444)"
       sodipodi:linespacing="125%"
       id="text6376"
       y="437.29022"
       x="951.75513"
       style="font-size:31.38889122px;font-style:normal;font-weight:normal;line-height:125%;letter-spacing:0px;word-spacing:0px;fill:#000000;fill-opacity:1;stroke:none;font-family:Sans"
       xml:space="preserve"><tspan
         style="font-size:31.45230293px;font-style:normal;font-variant:normal;font-weight:300;font-stretch:normal;font-family:Avenir;-inkscape-font-specification:Avenir Light"
         y="437.29022"
         x="951.75513"
         id="tspan6378"
         sodipodi:role="line">STF</tspan></text>
    <text
       transform="scale(1.0174136,0.98288444)"
       sodipodi:linespacing="125%"
       id="text6407"
       y="437.29019"
       x="570.01495"
       style="font-size:39.31537628px;font-style:normal;font-weight:normal;line-height:125%;letter-spacing:0px;word-spacing:0px;fill:#000000;fill-opacity:1;stroke:none;font-family:Sans"
       xml:space="preserve"><tspan
         style="font-size:31.45230293px;font-style:normal;font-variant:normal;font-weight:300;font-stretch:normal;font-family:Avenir;-inkscape-font-specification:Avenir Light"
         y="437.29019"
         x="570.01495"
         id="tspan6409"
         sodipodi:role="line">SAF</tspan></text>
    <text
       transform="scale(0.99249357,1.0075632)"
       sodipodi:linespacing="125%"
       id="text6411"
       y="427.13168"
       x="533.91632"
       style="font-size:40.30252838px;font-style:normal;font-weight:normal;line-height:125%;letter-spacing:0px;word-spacing:0px;fill:#000000;fill-opacity:1;stroke:none;font-family:Sans"
       xml:space="preserve"><tspan
         style="font-size:32.24202347px;font-style:normal;font-variant:normal;font-weight:normal;font-stretch:normal;font-family:Avenir;-inkscape-font-specification:Avenir"
         y="427.13168"
         x="533.91632"
         id="tspan6413"
         sodipodi:role="line">PF</tspan></text>
    <g
       id="g3033">
      <path
         style="fill:none;stroke:#000000;stroke-width:3;stroke-linecap:butt;stroke-linejoin:miter;stroke-miterlimit:4;stroke-opacity:1;stroke-dasharray:3, 6;stroke-dashoffset:0;marker-start:none"
         d="m 995.60634,440.02259 0,67.03895"
         id="path3790"
         inkscape:connector-curvature="0" />
      <path
         inkscape:connector-curvature="0"
         id="path6465"
         d="m 608.99998,440.02259 0,67.03895"
         style="fill:none;stroke:#000000;stroke-width:3;stroke-linecap:butt;stroke-linejoin:miter;stroke-miterlimit:4;stroke-opacity:1;stroke-dasharray:3, 6;stroke-dashoffset:0;marker-start:none" />
    </g>
    <path
       inkscape:connector-curvature="0"
       id="path4038"
       d="m 334,470.81814 0,-44.37011"
       style="fill:#000000;stroke:#000000;stroke-width:2.44248414;stroke-linecap:butt;stroke-linejoin:miter;stroke-miterlimit:4;stroke-opacity:1;stroke-dasharray:2.44248414, 117.23923874;stroke-dashoffset:24.4248414;marker-start:url(#Tail);marker-mid:url(#Tail);marker-end:url(#Tail)" />
    <path
       inkscape:connector-curvature="0"
       id="path6467"
       d="m 549.00001,440.02259 0,67.03895"
       style="fill:none;stroke:#000000;stroke-width:3;stroke-linecap:butt;stroke-linejoin:miter;stroke-miterlimit:4;stroke-opacity:1;stroke-dasharray:3, 6;stroke-dashoffset:0;marker-start:none" />
    <text
       sodipodi:linespacing="125%"
       id="text6480"
       y="370.12576"
       x="333.27866"
       style="font-size:40px;font-style:normal;font-weight:normal;text-align:center;line-height:125%;letter-spacing:0px;word-spacing:0px;text-anchor:middle;fill:#000000;fill-opacity:1;stroke:none;font-family:Sans"
       xml:space="preserve"><tspan
         style="font-size:24px;font-style:normal;font-variant:normal;font-weight:300;font-stretch:normal;text-align:center;text-anchor:middle;font-family:Avenir;-inkscape-font-specification:Avenir Light"
         y="370.12576"
         x="333.27866"
         id="tspan6482"
         sodipodi:role="line">Antarctic</tspan><tspan
         id="tspan6484"
         style="font-size:24px;font-style:normal;font-variant:normal;font-weight:300;font-stretch:normal;text-align:center;text-anchor:middle;font-family:Avenir;-inkscape-font-specification:Avenir Light"
         y="400.12576"
         x="333.27866"
         sodipodi:role="line">Divergence</tspan></text>
    <text
       sodipodi:linespacing="125%"
       id="text3019"
       y="505.04071"
       x="561.38281"
       style="font-size:40px;font-style:normal;font-weight:normal;line-height:125%;letter-spacing:0px;word-spacing:0px;fill:#000000;fill-opacity:1;stroke:none;font-family:Sans"
       xml:space="preserve"><tspan
         style="font-size:22px;font-style:italic;font-variant:normal;font-weight:normal;font-stretch:normal;font-family:Century Gothic;-inkscape-font-specification:Century Gothic Italic"
         y="505.04071"
         x="561.38281"
         id="tspan3021"
         sodipodi:role="line">PFZ</tspan></text>
    <text
       xml:space="preserve"
       style="font-size:40px;font-style:normal;font-weight:normal;line-height:125%;letter-spacing:0px;word-spacing:0px;fill:#000000;fill-opacity:1;stroke:none;font-family:Sans"
       x="783.37543"
       y="504.64325"
       id="text3027"
       sodipodi:linespacing="125%"><tspan
         sodipodi:role="line"
         id="tspan3029"
         x="783.37543"
         y="504.64325"
         style="font-size:22px;font-style:italic;font-variant:normal;font-weight:normal;font-stretch:normal;font-family:Century Gothic;-inkscape-font-specification:Century Gothic Italic">SAZ</tspan></text>
    <text
       xml:space="preserve"
       style="font-size:40px;font-style:normal;font-weight:normal;line-height:125%;letter-spacing:0px;word-spacing:0px;fill:#000000;fill-opacity:1;stroke:none;font-family:Sans"
       x="280.3287"
       y="505.04071"
       id="text3043"
       sodipodi:linespacing="125%"><tspan
         sodipodi:role="line"
         id="tspan3045"
         x="280.3287"
         y="505.04071"
         style="font-size:22px;font-style:italic;font-variant:normal;font-weight:normal;font-stretch:normal;font-family:Century Gothic;-inkscape-font-specification:Century Gothic Italic">AZ</tspan></text>
    <path
       style="fill:none;stroke:#000000;stroke-width:0.815;stroke-linecap:butt;stroke-linejoin:miter;stroke-miterlimit:4;stroke-opacity:1;stroke-dasharray:none;marker-end:url(#Arrow1Mend)"
       d="m 193.63493,474.63588 c 0,0 -5.76358,-4.37913 -4.68115,-8.91667 0.95871,-4.01889 10.48389,-1.93679 10.15259,-5.75162 -0.29679,-3.4174 -5.1842,-7.73086 -5.1842,-7.73086"
       id="path5628"
       inkscape:connector-curvature="0"
       sodipodi:nodetypes="czzc" />
    <path
       sodipodi:nodetypes="czzc"
       inkscape:connector-curvature="0"
       id="path5630"
       d="m 207.00105,476.8793 c 0,0 -6.4972,-4.54751 -6.17655,-9.26886 0.28358,-4.17537 10.13719,-2.03514 9.16172,-5.99267 -0.87275,-3.54082 -6.46696,-7.99494 -6.46696,-7.99494"
       style="fill:none;stroke:#000000;stroke-width:0.815;stroke-linecap:butt;stroke-linejoin:miter;stroke-miterlimit:4;stroke-opacity:1;stroke-dasharray:none;marker-end:url(#Arrow1Mend)" />
    <path
       style="fill:none;stroke:#000000;stroke-width:0.815;stroke-linecap:butt;stroke-linejoin:miter;stroke-miterlimit:4;stroke-opacity:1;stroke-dasharray:none;marker-end:url(#Arrow1Mend)"
       d="m 220.74527,479.18619 c 0,0 -7.26939,-4.72357 -7.75081,-9.63685 -0.42509,-4.33836 9.77005,-2.13779 8.12004,-6.24371 -1.4744,-3.66892 -7.80405,-8.26866 -7.80405,-8.26866"
       id="path5632"
       inkscape:connector-curvature="0"
       sodipodi:nodetypes="czzc" />
    <text
       xml:space="preserve"
       style="font-size:40px;font-style:normal;font-weight:normal;line-height:125%;letter-spacing:0px;word-spacing:0px;fill:#000000;fill-opacity:1;stroke:none;font-family:Sans"
       x="151.60086"
       y="438.45407"
       id="text5664"
       sodipodi:linespacing="125%"><tspan
         sodipodi:role="line"
         id="tspan5666"
         x="151.60086"
         y="438.45407"
         style="font-size:15px;font-style:normal;font-variant:normal;font-weight:bold;font-stretch:normal;font-family:Avenir Next;-inkscape-font-specification:Avenir Next Bold">East Wind Drift</tspan></text>
    <g
       id="g7769"
       transform="matrix(-1,0,0,1,881.22765,0)">
      <path
         style="fill:none;stroke:#000000;stroke-width:0.815;stroke-linecap:butt;stroke-linejoin:miter;stroke-miterlimit:4;stroke-opacity:1;stroke-dasharray:none;marker-end:url(#Arrow1Mend)"
         d="m 429.19189,456.78704 c 0,0 -5.76358,4.37913 -4.68115,8.91667 0.95871,4.01889 10.48389,1.93679 10.15259,5.75162 -0.29679,3.4174 -5.1842,7.73086 -5.1842,7.73086"
         id="path3057"
         inkscape:connector-curvature="0"
         sodipodi:nodetypes="czzc" />
      <path
         sodipodi:nodetypes="czzc"
         inkscape:connector-curvature="0"
         id="path4303"
         d="m 442.55801,454.54361 c 0,0 -6.4972,4.54752 -6.17655,9.26887 0.28358,4.17537 10.13719,2.03514 9.16172,5.99267 -0.87275,3.54082 -6.46696,7.99494 -6.46696,7.99494"
         style="fill:none;stroke:#000000;stroke-width:0.815;stroke-linecap:butt;stroke-linejoin:miter;stroke-miterlimit:4;stroke-opacity:1;stroke-dasharray:none;marker-end:url(#Arrow1Mend)" />
      <path
         style="fill:none;stroke:#000000;stroke-width:0.815;stroke-linecap:butt;stroke-linejoin:miter;stroke-miterlimit:4;stroke-opacity:1;stroke-dasharray:none;marker-end:url(#Arrow1Mend)"
         d="m 456.30223,452.23673 c 0,0 -7.26939,4.72357 -7.75081,9.63685 -0.42509,4.33836 9.77005,2.13779 8.12004,6.24371 -1.4744,3.66891 -7.80405,8.26866 -7.80405,8.26866"
         id="path4305"
         inkscape:connector-curvature="0"
         sodipodi:nodetypes="czzc" />
    </g>
    <text
       sodipodi:linespacing="125%"
       id="text5668"
       y="438.45407"
       x="384.62915"
       style="font-size:40px;font-style:normal;font-weight:normal;line-height:125%;letter-spacing:0px;word-spacing:0px;fill:#000000;fill-opacity:1;stroke:none;font-family:Sans"
       xml:space="preserve"><tspan
         style="font-size:15px;font-style:normal;font-variant:normal;font-weight:bold;font-stretch:normal;font-family:Avenir Next;-inkscape-font-specification:Avenir Next Bold"
         y="438.45407"
         x="384.62915"
         id="tspan5670"
         sodipodi:role="line">West Wind Drift</tspan></text>
    <path
       sodipodi:nodetypes="czzzccczc"
       inkscape:connector-curvature="0"
       id="path3004"
       d="m 13.091006,507.32097 c 40.170592,3.82487 42.456916,21.16545 75.619737,71.52173 33.162817,50.35628 47.447747,52.32051 96.997127,34.98902 49.54938,-17.33149 73.26051,-8.15878 90.05771,39.45555 16.7972,47.61433 56.46053,171.95158 125.85201,230.44569 43.67096,38.2531 104.20132,28.13304 157.35912,27.38036 82.59078,-3.47653 164.24731,-21.30378 240.844,-52.28503 40.7354,-13.4718 73.20719,-12.76143 123.34123,18.85221 50.13404,31.61364 60.57056,23.75287 93.86616,17.81981"
       style="fill:none;stroke:#917c6f;stroke-width:2.70000005;stroke-linecap:butt;stroke-linejoin:miter;stroke-miterlimit:4;stroke-opacity:1;stroke-dasharray:none" />
    <path
       style="fill:none;stroke:#000000;stroke-width:2;stroke-linecap:butt;stroke-linejoin:miter;stroke-miterlimit:4;stroke-opacity:1;stroke-dasharray:none;marker-end:url(#Arrow1Mend)"
       d="m 649.12402,212.35019 c 0,0 74.95333,26.87005 106.06602,33.94112 31.11269,7.07107 239.00209,11.31371 239.00209,11.31371"
       id="path6296"
       inkscape:connector-curvature="0"
       sodipodi:nodetypes="czc"
       transform="translate(0,308.2677)" />
    <path
       style="fill:none;stroke:#000000;stroke-width:2;stroke-linecap:butt;stroke-linejoin:miter;stroke-miterlimit:4;stroke-opacity:1;stroke-dasharray:none;marker-end:url(#Arrow1Mend)"
       d="m 992.77792,389.02637 c 0,0 -333.15677,-18.14449 -371.93817,-36.76955 -38.7814,-18.62506 -37.39986,-29.6908 -69.29646,-43.74011 -31.8966,-14.04931 -212.13204,-14.14214 -216.37468,-50.91169 -25.64345,-72.27777 200.83872,-37.73175 213.54625,-37.47667 12.70753,0.25508 41.78101,25.61626 65.63075,33.0102 33.62843,10.42555 80.03324,41.94313 101.24645,42.65024 42.42641,1.41422 278.60007,15.55634 278.60007,15.55634"
       id="path6880"
       inkscape:connector-curvature="0"
       sodipodi:nodetypes="czzczssc"
       transform="translate(0,308.2677)" />
    <path
       sodipodi:nodetypes="czzc"
       inkscape:connector-curvature="0"
       id="path7076"
       d="m 335.79729,568.53215 c 4.24264,36.76955 183.8494,136.20295 215.746,150.25226 31.8966,14.04931 30.51506,25.11505 69.29646,43.74011 38.7814,18.62506 371.93817,36.76955 371.93817,36.76955"
       style="fill:none;stroke:#000000;stroke-width:2;stroke-linecap:butt;stroke-linejoin:miter;stroke-miterlimit:4;stroke-opacity:1;stroke-dasharray:none;marker-end:none" />
    <path
       sodipodi:nodetypes="cczszc"
       inkscape:connector-curvature="0"
       id="path7272"
       d="m 335.00099,256.97062 c 0,0 -26.62548,-52.98782 -94.79014,-46.04848 -190.16466,-3.06066 -64.74642,72.20272 -7.38946,64.77261 57.35696,-7.43011 95.60624,254.80779 211.53695,290.40507 43.66329,13.4071 318.96129,-48.07634 398.61494,-44.79945 79.65365,3.27689 148.21885,43.30465 148.21885,43.30465"
       style="fill:none;stroke:#000000;stroke-width:2;stroke-linecap:butt;stroke-linejoin:miter;stroke-miterlimit:4;stroke-opacity:1;stroke-dasharray:none;marker-end:url(#Arrow1Mend)"
       transform="translate(0,308.2677)" />
    <path
       sodipodi:nodetypes="cc"
       inkscape:connector-curvature="0"
       id="path7274"
       d="m 310.00197,537.73138 -7.03415,-5.22294"
       style="fill:none;stroke:#000000;stroke-width:2;stroke-linecap:butt;stroke-linejoin:miter;stroke-miterlimit:4;stroke-opacity:1;stroke-dasharray:none;marker-end:url(#Arrow1Mend)" />
    <path
       style="fill:none;stroke:#000000;stroke-width:2;stroke-linecap:butt;stroke-linejoin:miter;stroke-miterlimit:4;stroke-opacity:1;stroke-dasharray:none;marker-end:url(#Arrow1Mend)"
       d="m 513.42273,699.39239 -7.5515,-4.44222"
       id="path7276"
       inkscape:connector-curvature="0"
       sodipodi:nodetypes="cc" />
    <path
       sodipodi:nodetypes="cc"
       inkscape:connector-curvature="0"
       id="path7278"
       d="m 994.40623,799.98265 -8.68802,-1.12997"
       style="fill:none;stroke:#000000;stroke-width:2;stroke-linecap:butt;stroke-linejoin:miter;stroke-miterlimit:4;stroke-opacity:1;stroke-dasharray:none;marker-end:url(#Arrow1Mend)" />
    <path
       style="fill:none;stroke:#000000;stroke-width:2;stroke-linecap:butt;stroke-linejoin:miter;stroke-miterlimit:4;stroke-opacity:1;stroke-dasharray:none;marker-end:url(#Arrow1Mend)"
       d="m 677.7872,590.08077 8.01142,3.5462"
       id="path7280"
       inkscape:connector-curvature="0"
       sodipodi:nodetypes="cc" />
    <path
       sodipodi:nodetypes="cc"
       inkscape:connector-curvature="0"
       id="path7282"
       d="m 993.58453,697.56907 -8.72431,-0.80305"
       style="fill:none;stroke:#000000;stroke-width:2;stroke-linecap:butt;stroke-linejoin:miter;stroke-miterlimit:4;stroke-opacity:1;stroke-dasharray:none;marker-end:url(#Arrow1Mend)" />
    <path
       sodipodi:nodetypes="cc"
       inkscape:connector-curvature="0"
       id="path7284"
       d="m 395.48873,521.24937 8.74342,-0.55777"
       style="fill:none;stroke:#000000;stroke-width:2;stroke-linecap:butt;stroke-linejoin:miter;stroke-miterlimit:4;stroke-opacity:1;stroke-dasharray:none;marker-end:url(#Arrow1Mend)" />
    <path
       style="fill:none;stroke:#000000;stroke-width:2;stroke-linecap:butt;stroke-linejoin:miter;stroke-miterlimit:4;stroke-opacity:1;stroke-dasharray:none;marker-end:url(#Arrow1Mend)"
       d="m 455.88531,602.18727 -8.73119,-0.72439"
       id="path7286"
       inkscape:connector-curvature="0"
       sodipodi:nodetypes="cc" />
    <path
       style="fill:none;stroke:#000000;stroke-width:2;stroke-linecap:butt;stroke-linejoin:miter;stroke-miterlimit:4;stroke-opacity:1;stroke-dasharray:none;marker-end:url(#Arrow1Mend)"
       d="m 316.08,711.81201 3.42963,8.06201"
       id="path7288"
       inkscape:connector-curvature="0"
       sodipodi:nodetypes="cc" />
    <path
       sodipodi:nodetypes="cc"
       inkscape:connector-curvature="0"
       id="path7290"
       d="m 716.69473,842.29152 8.67612,-1.218"
       style="fill:none;stroke:#000000;stroke-width:2;stroke-linecap:butt;stroke-linejoin:miter;stroke-miterlimit:4;stroke-opacity:1;stroke-dasharray:none;marker-end:url(#Arrow1Mend)" />
    <text
       xml:space="preserve"
       style="font-size:40px;font-style:normal;font-weight:normal;line-height:125%;letter-spacing:0px;word-spacing:0px;fill:#000000;fill-opacity:1;stroke:none;font-family:Sans"
       id="text7299"
       sodipodi:linespacing="125%"
       transform="translate(0,-4)"><textPath
         xlink:href="#path6296"
         id="textPath7546"><tspan
   style="font-size:15px;font-style:normal;font-variant:normal;font-weight:bold;font-stretch:normal;font-family:Avenir Next;-inkscape-font-specification:Avenir Next Bold"
   id="tspan7301">                            Subantarctic Mode Water</tspan></textPath></text>
    <text
       sodipodi:linespacing="125%"
       id="text7303"
       style="font-size:40px;font-style:normal;font-weight:normal;line-height:125%;letter-spacing:0px;word-spacing:0px;fill:#000000;fill-opacity:1;stroke:none;font-family:Sans"
       xml:space="preserve"
       transform="translate(0,-4)"><textPath
         xlink:href="#path6880"
         id="textPath7555"><tspan
   id="tspan7305"
   style="font-size:15px;font-style:normal;font-variant:normal;font-weight:bold;font-stretch:normal;font-family:Avenir Next;-inkscape-font-specification:Avenir Next Bold">                                                                                                                                                                                                                                                                                                             Antarctic Intermediate Water</tspan></textPath></text>
    <text
       xml:space="preserve"
       style="font-size:40px;font-style:normal;font-weight:normal;line-height:125%;letter-spacing:0px;word-spacing:0px;fill:#000000;fill-opacity:1;stroke:none;font-family:Sans"
       id="text7307"
       sodipodi:linespacing="125%"
       transform="translate(0,-4)"><textPath
         xlink:href="#path7561"
         id="textPath7757"><tspan
   style="font-size:15px;font-style:normal;font-variant:normal;font-weight:bold;font-stretch:normal;font-family:Avenir Next;-inkscape-font-specification:Avenir Next Bold"
   id="tspan7309">                                                                                                                                                                                                                                                                                                       Upper Circumpolar Deep Water</tspan></textPath></text>
    <text
       sodipodi:linespacing="125%"
       id="text7311"
       style="font-size:40px;font-style:normal;font-weight:normal;line-height:125%;letter-spacing:0px;word-spacing:0px;fill:#000000;fill-opacity:1;stroke:none;font-family:Sans"
       xml:space="preserve"
       transform="translate(0,-6)"><textPath
         xlink:href="#path7076"
         id="textPath7763"><tspan
   id="tspan7313"
   style="font-size:15px;font-style:normal;font-variant:normal;font-weight:bold;font-stretch:normal;font-family:Avenir Next;-inkscape-font-specification:Avenir Next Bold">                                                                                                                    Lower Circumpolar Deep Water</tspan></textPath></text>
    <text
       xml:space="preserve"
       style="font-size:40px;font-style:normal;font-weight:normal;line-height:125%;letter-spacing:0px;word-spacing:0px;fill:#000000;fill-opacity:1;stroke:none;font-family:Sans"
       id="text7315"
       sodipodi:linespacing="125%"
       transform="translate(0,-6)"><textPath
         xlink:href="#path7272"
         id="textPath7766"><tspan
   style="font-size:15px;font-style:normal;font-variant:normal;font-weight:bold;font-stretch:normal;font-family:Avenir Next;-inkscape-font-specification:Avenir Next Bold"
   id="tspan7317">                                                                                                                                                                                              Antarctic Bottom Water</tspan></textPath></text>
    <path
       sodipodi:nodetypes="czc"
       inkscape:connector-curvature="0"
       id="path7324"
       d="m 9.315302,446.58358 c 11.889839,32.35789 32.630176,44.67196 60.477294,45.58108 27.847118,0.90912 54.265244,-3.5184 54.265244,-3.5184"
       style="fill:none;stroke:#000000;stroke-width:3.56876898;stroke-linecap:butt;stroke-linejoin:miter;stroke-miterlimit:4;stroke-opacity:1;stroke-dasharray:none;marker-end:url(#Arrow1Mend)" />
    <text
       sodipodi:linespacing="125%"
       id="text7326"
       y="446.93936"
       x="68.557426"
       style="font-size:40px;font-style:normal;font-weight:normal;text-align:center;line-height:125%;letter-spacing:0px;word-spacing:0px;text-anchor:middle;fill:#000000;fill-opacity:1;stroke:none;font-family:Sans"
       xml:space="preserve"><tspan
         style="font-size:15px;font-style:normal;font-variant:normal;font-weight:bold;font-stretch:normal;text-align:center;text-anchor:middle;font-family:Avenir Next;-inkscape-font-specification:Avenir Next Bold"
         y="446.93936"
         x="68.557426"
         id="tspan7328"
         sodipodi:role="line">Katabatic</tspan><tspan
         style="font-size:15px;font-style:normal;font-variant:normal;font-weight:bold;font-stretch:normal;text-align:center;text-anchor:middle;font-family:Avenir Next;-inkscape-font-specification:Avenir Next Bold"
         y="465.68936"
         x="68.557426"
         sodipodi:role="line"
         id="tspan7330">Winds</tspan></text>
    <path
       style="fill:#ffffff;stroke:#000000;stroke-width:1px;stroke-linecap:butt;stroke-linejoin:miter;stroke-opacity:1"
       d="m 81.961941,503.64732 7.424621,14.84924 23.334528,-4.24264 23.68807,4.94975 28.99138,-4.5962 10.96016,1.41422 27.22361,-0.35356 24.74873,-1.76776 1.76777,-8.83884 -20.50609,-1.76776 -30.05204,2.47487 -5.65686,-1.06066 -7.77817,-2.47487 -16.61701,3.53553 -20.5061,-3.18198 -15.55635,1.76777 -8.83883,-1.76777 z"
       id="path7332"
       inkscape:connector-curvature="0" />
    <path
       style="fill:none;stroke:#008080;stroke-width:1.85899997;stroke-linecap:butt;stroke-linejoin:miter;stroke-miterlimit:4;stroke-opacity:1;stroke-dasharray:1.859, 89.232;stroke-dashoffset:0"
       d="m 97.278215,524.79269 c 1.27092,0 2.644601,-0.45699 3.812765,0 0.911,0.35638 0.56469,2.9635 0.63545,3.48028 -3.403342,2.88685 1.00819,2.28117 1.27093,3.48028 0.16616,0.75838 -0.10509,1.55276 0,2.32019 0.60674,4.43067 0.52523,0.22788 1.90638,4.64037 0.17457,0.55773 0,1.16009 0,1.74014 0.63545,0.96675 1.35402,1.89185 1.90638,2.90023 1.03795,1.89491 1.42097,3.22656 1.90638,5.22043 0.2343,0.96242 0.29391,1.96494 0.63545,2.90024 0.29957,0.82031 0.97136,1.49988 1.27093,2.32019 1.30392,3.57066 0.24142,1.98333 0.63546,5.22042 0.11927,0.97986 0.44225,1.93025 0.63545,2.90023 0.37545,1.88488 0.59654,3.95374 1.27093,5.80047 -0.0836,1.62921 1.39625,2.6634 1.90638,4.06034 0.067,0.18342 -0.0947,0.4071 0,0.58004 0.72243,1.31887 3.38794,1.25623 4.44821,1.74014 0.9473,0.43234 1.61603,1.27065 2.54185,1.74014 1.64826,0.83585 5.35174,1.74501 6.99005,2.32019 1.50565,0.5286 3.00536,1.08162 4.44822,1.74014 1.52747,0.69713 2.949,1.57374 4.44823,2.32019 0.83161,0.41405 1.75365,0.68046 2.54184,1.16009 0.19075,0.11608 2.43976,2.63778 3.1773,1.74014 1.45868,-1.77531 -0.83105,-3.8151 -1.27092,-5.22042 -0.17458,-0.55773 0,-1.16009 0,-1.74014 -0.42365,-0.96674 -0.79891,-1.95235 -1.27093,-2.90023 -0.58798,-1.18077 -1.42078,-2.26135 -1.90638,-3.48028 -0.53034,-1.33128 -1.03582,-5.95915 -1.27091,-6.96058 -0.32311,-1.37635 -1.03042,-2.66994 -1.27092,-4.06032 -0.39781,-2.29974 -0.40454,-4.6419 -0.63546,-6.96056 -0.19273,-1.93516 -0.51738,-3.86033 -0.63547,-5.80047 -0.18799,-3.08883 0.24147,-6.19504 0,-9.28076 -0.0918,-1.17311 -0.40497,-2.32316 -0.63545,-3.48028 -0.19322,-0.96999 -0.21,-1.99406 -0.63546,-2.90024 -0.69015,-1.46992 -2.43654,-1.39753 -3.81276,-1.74014 -4.6904,-1.16765 -3.75991,-1.19233 -8.26098,-1.74014 -6.06075,-0.73763 -4.09799,-0.12374 -8.26099,-1.16009 -1.48773,-0.37036 -2.97117,-0.75562 -4.44822,-1.16009 -0.64158,-0.1757 -1.24954,-0.46014 -1.90638,-0.58005 -0.0244,-0.004 -1.90326,0.002 -1.90638,0 -0.14977,-0.13672 -0.14977,-0.44333 0,-0.58005 0.57682,-0.52651 1.03314,0.50894 1.27093,1.1601 0.96212,2.63469 0.79906,3.82437 0.63545,6.96056 -0.13136,2.51811 -0.19912,5.05131 -0.63545,7.54061 -0.41395,2.36156 -1.31724,4.63021 -1.90638,6.96057 -0.68196,2.69744 -1.23425,5.42116 -1.90638,8.12065 -1.63054,6.54875 -1.27093,2.54062 -1.27093,8.7007 0,0.7517 -0.29078,5.86145 0.63547,6.96058 3.15761,3.74694 9.00864,6.55683 13.34465,8.7007 7.73039,3.82215 16.5972,7.22599 25.4184,8.12065 2.73682,0.27758 5.50732,0 8.26099,0 1.69456,0 3.38912,0 5.08368,0 1.27092,0 2.56233,0.20754 3.81276,0 1.12229,-0.18625 2.12884,-0.74993 3.1773,-1.16009 0.43534,-0.1703 0.936,-0.27433 1.27091,-0.58005 0.14979,-0.13671 -0.0947,-0.40711 0,-0.58004 0.13398,-0.24457 0.54074,-0.32064 0.63547,-0.58005 0.13396,-0.36685 0,-0.77339 0,-1.16009 0,-2.94611 0.0501,-1.13835 -1.90638,-5.22043 -7.81455,-16.30423 4.81645,7.56559 -8.26098,-13.92113 -4.15436,-6.82576 -2.53207,-6.75532 -6.99006,-12.18098 -4.78969,-5.82937 -5.91046,-6.81607 -11.43828,-11.0209 -2.08389,-1.58514 -4.13848,-3.21246 -6.3546,-4.64037 -2.67496,-1.72355 -6.71294,-3.23685 -9.5319,-4.64038 -0.67048,-0.33382 -1.24328,-0.81422 -1.90638,-1.16009 -1.23372,-0.64351 -2.54184,-1.1601 -3.81276,-1.74014 -1.09256,-0.49864 -1.76937,-0.3752 -1.27093,-1.74014 0.0947,-0.25941 0.33694,-0.55735 0.63547,-0.58005 2.32197,-0.17662 4.66004,0 6.99005,0 4.23641,0 8.4728,0 12.70921,0 4.23639,0 8.4728,0 12.70919,0 9.90124,0 15.53656,-0.19311 25.41841,0.58005 3.19371,0.24987 6.3546,0.77339 9.5319,1.16009 3.1773,0.3867 6.3546,0.7734 9.5319,1.16009 2.54184,0.3867 5.07452,0.82745 7.62552,1.1601 1.89883,0.2476 3.83021,0.27577 5.71914,0.58004 2.49001,0.4011 7.01473,1.69356 9.5319,2.32019 0.84259,0.20976 1.67726,0.46731 2.54184,0.58005 7.86263,1.02529 -4.26885,-1.26417 3.81276,0.58005 0.2055,0.0469 0.48568,-0.13672 0.63546,0 0.14977,0.13671 0,0.38669 0,0.58004 0,0.3867 0.25418,0.85074 0,1.1601 -0.45823,0.55771 -1.25149,0.80142 -1.90638,1.16009 -6.004,3.28827 -2.75136,1.76104 -9.5319,3.48028 -5.66658,1.43679 -5.95467,2.06992 -11.43828,2.32019 -14.09162,0.64314 -1.56012,-1.23713 -20.97018,0.58005 -12.26476,1.14823 -9.10572,1.68958 -19.69926,3.48028 -2.94551,0.4979 -5.93751,0.73363 -8.89645,1.1601 -0.18588,0.0268 -4.22382,0.97247 -5.08367,0.58005 -0.42364,-0.19336 -0.5576,-0.73364 -0.63547,-1.1601 -0.13928,-0.76288 -0.26793,-1.58648 0,-2.32019 0.18946,-0.51881 0.88103,-0.74488 1.27093,-1.16009 0.88267,-0.93999 1.70915,-1.92299 2.54183,-2.90024 2.33972,-2.74589 2.17998,-3.31513 6.35461,-5.22042 2.21754,-1.01209 4.70506,-1.44198 6.99006,-2.32019 9.6228,-3.69839 0.28895,-1.50426 13.34466,-4.64038 2.22496,-0.53446 8.62332,-1.06613 10.16736,-1.16009 1.05675,-0.0643 2.12346,0.0962 3.1773,0 1.07471,-0.0981 2.10096,-0.49818 3.1773,-0.58005 2.11089,-0.16057 4.2364,0 6.3546,0 0.15412,0 1.88594,-0.0186 1.90638,0 0.002,0.002 -0.003,1.72033 0,1.74014 0.15274,0.97599 0.52799,1.91924 0.63546,2.90024 0.10539,0.96194 -0.0812,1.93633 0,2.90023 0.89819,10.65828 0.63546,-2.00305 0.63546,10.44085 0,5.25323 0.61919,10.08634 -1.90638,15.08122 -1.4035,2.77574 -3.75824,5.06228 -5.71914,7.54062 -2.62012,3.31149 -7.32697,7.72562 -10.16736,9.86079 -0.88053,0.66191 -2.11821,0.7734 -3.1773,1.1601 -4.2364,1.54679 -8.368,3.35834 -12.7092,4.64037 -6.76337,1.99734 -10.81214,1.8482 -17.79288,2.32019 -12.08782,0.81732 -4.9498,0.58005 -18.42834,0.58005 -1.48274,0 -2.96548,0 -4.44823,0 -1.90638,0 -3.8176,0.12398 -5.71914,0 -1.60593,-0.10471 -7.44065,-1.61534 -8.26098,-1.74014 -0.83575,-0.12715 -1.70307,0.10937 -2.54183,0 -0.66311,-0.0865 -1.24567,-0.47953 -1.90638,-0.58005 -0.62682,-0.0954 -1.27093,0 -1.90638,0 -0.84728,0 -1.69456,0 -2.54184,0 -0.21182,0 -0.485685,0.13672 -0.635467,0 -0.149774,-0.13672 0,-0.3867 0,-0.58005 0,-0.38669 0,-0.77339 0,-1.16009 0,-0.58005 -0.174568,-1.18241 0,-1.74014 1.267507,-4.04941 2.801157,-4.40946 5.719137,-8.7007 2.45245,-3.60663 4.57975,-7.39069 6.99007,-11.0209 8.05759,-12.13569 2.70608,-4.45726 12.70919,-14.50117 5.25421,-5.27564 5.335,-7.38614 12.07374,-11.0209 4.55956,-2.45934 10.76614,-3.80576 15.88651,-4.64038 3.1555,-0.51434 6.33235,-0.98308 9.53189,-1.16009 3.80578,-0.21054 7.71633,-0.75498 11.43829,0 2.23662,0.45369 3.78197,2.36349 5.71914,3.48028 2.08854,1.20406 4.29925,2.22954 6.3546,3.48028 1.94971,1.18647 6.93782,4.74168 8.89644,6.38052 1.32493,1.10861 2.81577,2.11521 3.81276,3.48029 0.92141,1.26159 1.56534,4.824 1.90638,6.38051 0.21182,0.96674 0.73325,1.91839 0.63546,2.90024 -0.12128,1.21782 -0.39353,2.55619 -1.27092,3.48028 -5.58486,5.88213 -8.39594,5.8657 -16.52196,7.54061 -0.44617,0.092 -15.92376,2.77837 -17.79288,2.90024 -3.38051,0.22041 -6.77824,0 -10.16736,0 -3.71307,0 -4.7441,0.2225 -8.26098,-0.58005 -0.45951,-0.10486 -0.98673,-0.23418 -1.27092,-0.58004 -0.40191,-0.48915 -0.5041,-1.1406 -0.63546,-1.74015 -0.16617,-0.75837 0,-1.54679 0,-2.32019 0,-0.58005 -0.40682,-1.29454 0,-1.74014 0.7907,-0.8661 2.21283,-1.03585 3.1773,-1.74014 1.16957,-0.85407 2.1182,-1.93349 3.1773,-2.90024 1.90638,-1.35344 3.77483,-2.75261 5.71914,-4.06032 2.08155,-1.40002 4.26956,-2.66464 6.3546,-4.06033 1.09373,-0.73214 2.02715,-1.66403 3.1773,-2.32019 2.25067,-1.28401 4.64821,-2.34021 6.99006,-3.48028 0.83584,-0.40691 1.69455,-0.7734 2.54184,-1.1601 0.84728,-0.3867 1.61711,-0.97251 2.54184,-1.1601 1.03388,-0.20971 2.1182,0 3.17729,0 0.84729,0 1.71474,-0.16777 2.54185,0 4.66085,0.94544 2.76415,1.44419 5.71914,5.22043 1.13509,1.45055 2.8226,2.52385 3.81276,4.06033 1.1567,1.79492 1.57708,3.9134 2.54184,5.80047 0.52231,1.02164 1.44767,1.85346 1.90638,2.90023 0.40113,0.91538 0.42364,1.9335 0.63546,2.90024 0.21182,0.96675 0.52799,1.91924 0.63546,2.90024 0.10538,0.96194 0,1.93348 0,2.90024 0,0.38669 0,0.77338 0,1.16009 0,0.38669 0.26465,0.85813 0,1.16009 -1.68324,1.92057 -2.79853,1.75131 -5.08368,2.32019 -12.09492,3.01096 1.6923,-0.22262 -7.62552,1.74014 -1.70199,0.35852 -3.37089,0.8474 -5.08369,1.16009 -3.07169,0.56077 -4.76788,0.58005 -7.62551,0.58005 -0.21182,0 0.42364,0 0.63546,0 2.89279,0 0.0363,-0.27343 1.90638,0.58005 0.18946,0.0865 0.42363,0 0.63546,0 0.63545,0 1.27092,0 1.90638,0 1.48274,0 2.97693,0.16787 4.44821,0 4.75654,-0.54273 0.76862,-0.0972 3.81277,-2.32019 0.52305,-0.38195 1.28445,-0.35297 1.90638,-0.58005 0.43977,-0.16057 0.892,-0.32064 1.27092,-0.58004 0.47929,-0.32813 0.84728,-0.7734 1.27092,-1.1601 0.84728,-0.7734 1.69456,-1.54679 2.54184,-2.32018 2.00716,-1.83214 2.98235,-2.66298 5.08368,-5.22043 0.74107,-0.90193 1.25177,-1.9442 1.90637,-2.90024 0.40479,-0.59116 0.92938,-1.1166 1.27093,-1.74014 0.29956,-0.54687 0.29083,-1.21585 0.63546,-1.74014 1.4207,-2.16135 1.27092,-0.30756 1.27092,-1.74014 0,-0.19335 0.0947,-0.40711 0,-0.58005 -1.30201,-2.37695 -1.67373,-1.86865 -4.44822,-3.48028 -1.28866,-0.74854 -2.54184,-1.54679 -3.81276,-2.32018 -2.23788,-1.36183 -3.91207,-2.58848 -6.3546,-3.48029 -1.24385,-0.45415 -2.55375,-0.74219 -3.81276,-1.16009 -3.18707,-1.05788 -4.0029,-1.71896 -7.62552,-2.32019 -0.83361,-0.13835 -1.69456,0 -2.54184,0 -0.42364,0 -0.892,0.17293 -1.27092,0 -0.53586,-0.24457 -0.84728,-0.77339 -1.27092,-1.1601 -0.21183,-0.19334 -0.35498,-0.48404 -0.63546,-0.58005 -1.44389,-0.49423 -3.00433,-0.66584 -4.44822,-1.16009 -1.95336,-0.66863 -3.71323,-1.79704 -5.71914,-2.32019 -6.65965,-1.73682 -13.52422,-1.16009 -20.33473,-1.16009 -1.90638,0 -3.81276,0 -5.71914,0 -0.63545,0 -1.30353,-0.18343 -1.90638,0 -0.72453,0.22045 -1.19727,0.90119 -1.90638,1.16009 -0.39334,0.14362 -0.97136,-0.27343 -1.27091,0 -0.29956,0.27345 -0.35249,0.9456 0,1.1601 1.11467,0.67831 2.61453,0.61322 3.81276,1.16009 1.36619,0.62354 2.48147,1.63664 3.81276,2.32019 5.92869,3.04409 5.99441,2.79064 12.07374,4.64038 1.90638,0.58005 3.76305,1.32002 5.71914,1.74014 1.66235,0.35703 3.38763,0.39791 5.08367,0.58005 5.30068,0.56923 10.63136,0.86798 15.8865,1.74014 1.06266,0.17636 2.10558,0.45776 3.17731,0.58005 4.12194,0.47031 -0.32581,-0.67919 3.81276,0.58004 0.63546,0.19335 1.43273,0.1477 1.90638,0.58005 0.29956,0.27343 -0.10275,0.78494 0,1.16009 0.91964,3.35781 0.63546,-1.52473 0.63546,2.90024 0,0.58004 0,1.16009 0,1.74014 0,0.3867 0.10275,0.78494 0,1.16009 -0.65864,2.40482 -6.12017,6.82599 -6.99006,7.54062 -5.1114,4.19911 -8.70356,6.86275 -14.61558,9.86079 -6.77478,2.65029 -2.15282,0.62573 -7.62553,3.48028 -0.41123,0.21451 -0.93599,0.27434 -1.27091,0.58005 -0.14978,0.13672 0.42996,-0.0469 0.63546,0 0.64983,0.1483 1.27919,0.36537 1.90638,0.58005 1.06806,0.3656 2.18016,0.65444 3.1773,1.16009 0.92582,0.4695 1.57767,1.3401 2.54184,1.74014 3.76653,1.56278 8.63472,1.74014 12.70919,1.74014 2.3282,0 4.10616,0.1896 6.35461,-0.58004 0.7151,-0.24478 1.27092,-0.77339 1.90638,-1.1601 4.30985,-2.62268 -0.83492,0.76212 4.44822,-4.06033 1.16981,-1.0678 2.59324,-1.87981 3.81276,-2.90023 1.32493,-1.10861 2.54184,-2.32019 3.81276,-3.48028 0.63546,-0.58005 1.3146,-1.12279 1.90638,-1.74014 3.65393,-3.81178 1.53393,-1.81024 4.44822,-5.80047 0.58748,-0.80438 1.29079,-1.53352 1.90638,-2.32019 0.44391,-0.56728 0.84728,-1.1601 1.27092,-1.74015 0.42364,-0.58004 1.06111,-1.06983 1.27092,-1.74014 0.23277,-0.74363 -0.13929,-1.55731 0,-2.32018 0.15573,-0.85292 1.08515,-1.4723 1.27092,-2.32019 0.12462,-0.56879 0,-1.16009 0,-1.74014 0,-1.54679 0,-3.09359 0,-4.64037 0,-1.1601 0,-2.32019 0,-3.48029 0,-1.54679 0.53586,-3.17296 0,-4.64038 -0.93014,-2.54708 -6.96769,-9.94394 -8.89645,-11.60094 -1.66843,-1.43336 -3.86171,-2.25579 -5.71913,-3.48028 -1.95789,-1.29072 -3.88545,-2.62564 -5.71914,-4.06032 -1.13721,-0.88976 -2.1182,-1.9335 -3.1773,-2.90024 -0.63546,-0.58005 -1.20463,-1.2277 -1.90638,-1.74015 -0.36986,-0.27007 -0.87683,-0.34022 -1.27093,-0.58004 -0.49849,-0.30335 -0.73504,-0.91553 -1.27091,-1.1601 -0.18946,-0.0865 -0.42364,0 -0.63547,0 -0.21181,0 -0.42363,0 -0.63545,0 -0.20869,0 -1.8117,-0.0576 -1.90638,0 -1.41712,0.86237 -2.53884,3.35826 -3.1773,4.64038 -1.95025,3.91641 -2.32766,4.94284 -3.81276,9.28075 -0.45996,1.34353 -0.98673,2.67684 -1.27092,4.06033 -0.69611,3.38882 -1.25451,8.74565 0,12.18099 0.44934,1.23046 1.11819,2.4011 1.90638,3.48029 0.49849,0.68254 1.27092,1.16009 1.90638,1.74014 0.84728,0.77339 1.76204,1.48975 2.54184,2.32018 0.49702,0.52931 0.81268,1.18244 1.27092,1.74014 0.17973,0.21875 0.50149,0.33548 0.63546,0.58005 0.0947,0.17294 -0.0514,0.39247 0,0.58005 0.16245,0.59317 0.56148,1.13246 0.63545,1.74014 0.32012,2.62977 -0.0393,5.10471 -1.27091,7.54061 -0.64009,1.26593 -1.64344,2.3527 -2.54184,3.48029 -0.79774,1.00124 -1.58279,2.0248 -2.54184,2.90023 -0.7489,0.68359 -1.69456,1.16009 -2.54184,1.74014 -3.95446,2.70721 -0.98259,1.05482 -4.44822,2.32019 -0.87954,0.32113 -1.64317,0.88666 -2.54185,1.16009 -0.19491,0.0593 -3.52583,0.0524 -3.81276,0 -4.23049,-0.77231 -3.81276,-3.29645 -3.81276,-6.38051 0,-1.5468 0,-3.09359 0,-4.64038 0,-0.7734 -0.13928,-1.55731 0,-2.32019 0.28717,-1.5727 0.90494,-3.08137 1.27093,-4.64038 0.26996,-1.14998 0.40497,-2.32316 0.63545,-3.48028 0.19322,-0.96998 0.5015,-1.92195 0.63547,-2.90023 0.0788,-0.57557 -0.0899,-1.16592 0,-1.74014 0.12351,-0.78919 0.51195,-1.531 0.63546,-2.32019 0.0899,-0.57422 0,-1.16009 0,-1.74014 0,-1.5468 0,-3.09359 0,-4.64038 0,-0.77339 0,-1.54679 0,-2.32019 0,-0.58005 0.0899,-1.16592 0,-1.74014 -0.31148,-1.99023 -1.17452,-3.6603 -2.54184,-5.22042 -0.74854,-0.85407 -1.69456,-1.54679 -2.54185,-2.32019 -0.9959,-0.90906 -1.79504,-1.89962 -3.17729,-2.32019 -0.20095,-0.0611 -0.42365,0 -0.63546,0 -0.42364,0 -0.84729,0 -1.27092,0 -0.84728,0 -1.69456,0 -2.54184,0 -1.42421,0 -2.35846,-0.33477 -3.1773,1.16009 -0.18946,0.34588 0,0.7734 0,1.1601 0,0.58005 0,1.16009 0,1.74014 0,2.90023 0,5.80047 0,8.7007 0,5.02708 0,10.05416 0,15.08123 0,1.16009 0,2.32018 0,3.48028 0,1.35344 0.33341,2.74155 0,4.06033 -0.31952,1.26381 -1.23271,2.33829 -1.90638,3.48029 -3.42994,5.81442 -1.71928,2.92731 -6.99007,8.7007 -4.29915,4.70911 0.94273,-0.0747 -5.08367,4.64037 -0.45489,0.3559 -0.73506,0.91553 -1.27093,1.1601 -0.37891,0.17293 -0.84727,0 -1.27091,0 -0.21182,0 -0.42364,0 -0.63547,0 -0.21182,0 -0.45921,0.10725 -0.63545,0 -0.4985,-0.30335 -0.88738,-0.73998 -1.27093,-1.1601 -2.32506,-2.54678 -1.79923,-2.07567 -3.17729,-5.22042 -0.42364,-0.96674 -0.95755,-1.89908 -1.27092,-2.90023 -0.29818,-0.95262 -1.77606,-7.03533 -1.90638,-8.70071 -0.12074,-1.54286 0,-3.09358 0,-4.64038 0,-4.44702 0,-8.89405 0,-13.34108 0,-3.67363 0,-7.34726 0,-11.02089 0,-2.70689 -0.53049,-5.45743 0,-8.12066 0.33891,-1.70147 1.7479,-3.07019 2.54183,-4.64037 0.47802,-0.94539 0.66636,-2.0173 1.27093,-2.90024 0.51618,-0.75388 2.01179,-2.05423 3.1773,-2.32019 0.41099,-0.0938 0.84728,0 1.27091,0 1.25269,0 1.44196,-0.17293 2.54184,0.58004 1.20731,0.82652 1.7081,1.75868 2.54185,2.90024 1.75691,2.40556 2.33301,3.26506 1.90638,6.38052 -0.30948,2.2599 -3.38262,5.40784 -4.44823,6.38052 -0.66982,0.61142 -1.75364,0.68045 -2.54184,1.16009 -1.76245,1.07251 -3.38911,2.32019 -5.08367,3.48028 -1.69457,1.16009 -3.23205,2.5413 -5.08368,3.48028 -0.70404,0.35703 -10.03403,3.63307 -11.43829,4.06034 -9.521795,2.89716 -0.56612,0.32241 -6.990055,1.16009 -0.663101,0.0865 -1.256545,0.43175 -1.90638,0.58005 -0.205496,0.0469 -0.63546,0.19334 -0.63546,0 0,-0.19335 0.423641,0 0.63546,0 0.63546,0 1.270921,0 1.90638,0 2.965475,0 5.930955,0 8.896435,0 2.54184,0 5.12326,0.40786 7.62553,0 2.52781,-0.41204 13.17807,-3.69428 16.52195,-5.22043 2.20945,-1.00839 4.22544,-2.33704 6.35461,-3.48028 1.47197,-0.79036 2.9731,-1.53474 4.44822,-2.32019 1.06686,-0.56806 2.22846,-1.01839 3.1773,-1.74014 0.36386,-0.27678 0.36016,-0.80828 0.63546,-1.16009 0.78834,-1.00744 1.6487,-1.96852 2.54184,-2.90024 0.59178,-0.61734 1.30519,-1.1304 1.90638,-1.74014 1.30641,-1.32499 2.37318,-2.85579 3.81276,-4.06033 1.12597,-0.94214 2.5241,-1.57164 3.81276,-2.32018 1.04202,-0.60529 2.05587,-1.2677 3.1773,-1.74015 3.97042,-1.67271 5.98088,-1.94488 10.16736,-2.90024 1.69456,-0.38669 3.35452,-0.93461 5.08368,-1.16009 1.25814,-0.16406 2.54623,0.0963 3.81275,0 9.29703,-0.70719 -0.53252,-0.58005 6.35461,-0.58005 0.63546,0 1.28989,-0.14068 1.90638,0 0.5828,0.133 1.1143,1.52571 1.27092,1.74014 0.58748,0.80438 1.20896,1.59265 1.90638,2.32019 0.78904,0.82314 1.92535,1.38231 2.54184,2.3202 0.68925,1.04857 0.50267,2.47848 1.27092,3.48028 0.77779,1.01424 2.21824,1.44476 3.1773,2.32018 1.99092,1.81731 1.82185,2.82307 3.81276,4.64038 0.87375,0.79756 4.76595,3.19026 5.71914,4.06033 0.54004,0.49294 0.73088,1.24719 1.27092,1.74014 0.54004,0.49294 1.31001,0.7246 1.90638,1.16009 0.46784,0.34163 0.79163,0.83197 1.27092,1.16009 0.37892,0.25941 0.84728,0.38671 1.27092,0.58005 0.42364,0.19335 0.82158,0.44333 1.27092,0.58005 0.20095,0.0611 0.43451,-0.0611 0.63546,0 1.0444,0.31778 1.66813,1.015 1.90638,0.58005 0.18945,-0.34587 0,-0.77339 0,-1.1601 0,-0.38669 0,-0.77339 0,-1.16009 0,-0.3867 0,-0.77339 0,-1.1601 0,-0.58004 0.28418,-1.22132 0,-1.74014 -0.4019,-0.7337 -1.33106,-1.10996 -1.90638,-1.74014 -0.97785,-1.07109 -1.65403,-2.34572 -2.54184,-3.48028 -0.61559,-0.78667 -1.22836,-1.57751 -1.90638,-2.32019 -0.38354,-0.42011 -0.96268,-0.69115 -1.27092,-1.16009 -0.34463,-0.52429 -0.3359,-1.19327 -0.63546,-1.74014 -0.34155,-0.62354 -0.89201,-1.13486 -1.27092,-1.74014 -0.46998,-0.75076 -0.74546,-1.60073 -1.27092,-2.32019 -0.33233,-0.45503 -0.84728,-0.7734 -1.27092,-1.16009 -0.42364,-0.58005 -0.87799,-1.14236 -1.27092,-1.74015 -0.24369,-0.37073 -0.52059,-0.74065 -0.63546,-1.16009 -0.10275,-0.37515 0.29956,-0.88665 0,-1.1601 -0.29956,-0.27343 -0.97137,-0.27343 -1.27092,0 -0.29956,0.27345 0,0.7734 0,1.1601 0,3.86698 0,7.73396 0,11.60094 0,10.6342 0,21.26839 0,31.90258 0,3.28694 0,6.57387 0,9.86081 0,0.58005 0,1.16009 0,1.74014 0,0.58005 0.15412,1.17741 0,1.74014 -0.0726,0.26527 -0.42364,0.3867 -0.63547,0.58005 -1.82654,1.66726 -0.61088,0.90349 -3.17729,1.74014 -2.33485,0.76116 -4.5848,1.7713 -6.99006,2.32018 -7.35284,1.67792 -12.34108,1.93639 -19.69926,2.32019 -4.44601,0.2319 -8.89312,0.46718 -13.34467,0.58005 -3.72352,0.0944 -13.07597,0.16507 -17.15741,-0.58005 -3.56961,-0.65166 -7.78671,-3.09176 -10.80282,-4.64037 -5.37657,-2.7606 -3.31926,-1.28967 -6.99006,-4.64038 -1.49761,-1.36701 -3.36107,-2.57884 -3.81276,-4.64037 -0.24925,-1.13757 0,-2.32019 0,-3.48029 0,-1.16009 0,-2.32019 0,-3.48028 0,-1.74014 0,-3.48028 0,-5.22042 0,-1.9335 -0.13214,-3.87075 0,-5.80047 0.0722,-1.05448 0.80208,-4.51661 1.27091,-5.80047 0.36072,-0.98779 0.91021,-1.91245 1.27093,-2.90024 0.27618,-0.75629 0.51195,-1.531 0.63545,-2.32019 0.0899,-0.57421 -0.20094,-1.18986 0,-1.74014 0.24152,-0.66136 0.92938,-1.1166 1.27093,-1.74014 1.46279,-2.67048 0.0413,-0.76816 0.63545,-3.48028 0.0929,-0.42394 0.52059,-0.74066 0.63547,-1.16009 0.12497,-0.45628 0,-2.87708 0,-3.48029 0,-0.19335 0.14978,-0.44333 0,-0.58004 -0.33492,-0.30572 -0.86477,-0.35762 -1.27092,-0.58005 -0.65489,-0.35867 -1.36635,-0.66715 -1.90638,-1.16009 -0.33492,-0.30572 -0.30055,-0.85439 -0.63546,-1.1601 -0.33492,-0.30571 -0.87682,-0.34023 -1.27092,-0.58004 -0.87653,-0.5334 -0.41862,-1.03273 -1.90638,-0.58005 -1.12816,0.34326 -1.80679,3.51489 -1.90638,4.06033 -0.0696,0.38143 0.18945,0.81421 0,1.16009 -0.26794,0.48914 -0.84728,0.7734 -1.27093,1.16009 -1.73299,1.58187 -2.27436,2.2401 -4.44821,3.48029 -2.28927,1.30602 -5.22999,1.98913 -7.62553,2.90023 -1.45052,0.55169 -4.592814,2.16588 -5.719134,2.90023 -0.487522,0.31787 -0.735054,0.91553 -1.270921,1.1601 -1.303507,0.59492 -1.661972,-0.98162 -1.270919,1.16009 0.390907,2.14092 0.991852,3.13348 1.906379,5.22043 0.42364,0.96674 0.716954,1.99005 1.27092,2.90024 0.514345,0.84508 1.392032,1.4751 1.906385,2.32018 0.55396,0.91019 0.63817,2.03389 1.27091,2.90024 0.26274,0.35973 0.93601,0.27434 1.27093,0.58004 0.33491,0.30571 0.21182,0.96675 0.63545,1.1601 0.56838,0.2594 1.27093,0 1.90638,0 0.35469,0 2.88642,0.0885 3.17731,0 0.28419,-0.0865 0.40533,-0.405 0.63545,-0.58005 10.67797,-8.12236 -3.58161,3.07755 5.71915,-4.64037 3.77466,-3.13228 7.60866,-6.20457 11.43828,-9.28076 1.46605,-1.17763 3.01716,-2.26732 4.44822,-3.48028 1.5366,-1.30242 2.88552,-2.78405 4.44821,-4.06033 5.52203,-4.50992 5.92772,-4.99776 10.80283,-7.54061 0.80098,-0.41779 1.55651,-0.87985 2.54184,-0.58005 1.38436,0.42121 0.63546,3.28504 0.63546,3.48028 0,1.1601 0,2.32019 0,3.48029 0,1.35344 0,2.70688 0,4.06032 0,1.5468 0.12996,3.09814 0,4.64038 -0.0829,0.98299 -0.53767,1.9184 -0.63546,2.90024 -0.11506,1.15533 0,2.32019 0,3.48028 0,1.54679 0,3.09359 0,4.64038 0,0.6032 -0.12497,3.024 0,3.48028 0.11487,0.41943 0.39177,0.78936 0.63546,1.16009 0.39293,0.59779 0.79382,1.19578 1.27092,1.74014 1.57614,1.79839 1.23791,0.51979 2.54184,2.90023 0.29956,0.54688 0.38669,1.17246 0.63546,1.74015 1.15186,2.62855 0.0587,0.0803 1.27091,1.74014 0.26274,0.35973 0.30055,0.85438 0.63547,1.1601 0.73019,0.66651 1.12383,0.58005 1.90638,0.58005 0.21182,0 0.43451,-0.0611 0.63546,0 0.44934,0.13671 0.81142,0.47518 1.27092,0.58004 0.18308,0.0417 4.15477,0.0765 4.44822,0 1.0968,-0.28605 2.192,-0.63546 3.1773,-1.16009 1.57393,-0.83807 2.9321,-1.97763 4.44822,-2.90024 1.66269,-1.0118 3.44069,-1.86197 5.08368,-2.90024 1.11514,-0.7047 2.0804,-1.59201 3.1773,-2.32019 1.2353,-0.82006 2.56142,-1.52062 3.81276,-2.32018 0.86765,-0.55439 1.64372,-1.22777 2.54184,-1.74014 0.19231,-0.10972 2.93053,-1.0644 3.1773,-1.74014 0.13397,-0.36686 0,-0.7734 0,-1.1601 0,-0.38669 0.13397,-0.79324 0,-1.16009 -0.14978,-0.41016 -0.30054,-0.85439 -0.63546,-1.16009 -0.54004,-0.49295 -1.25874,-0.79063 -1.90638,-1.1601 -1.04737,-0.59752 -2.21284,-1.03586 -3.1773,-1.74014 -1.16958,-0.85408 -2.16977,-1.8886 -3.17731,-2.90023 -2.7275,-2.73864 -5.19408,-5.74151 -7.62551,-8.70071 -0.63546,-0.7734 -1.29079,-1.53352 -1.90638,-2.32019 -0.44391,-0.56728 -0.782,-1.20459 -1.27092,-1.74014 -0.57532,-0.63018 -1.33107,-1.10996 -1.90638,-1.74014 -2.62564,-2.87601 -0.25215,-0.63527 -1.90638,-2.90024 -0.16617,-0.22751 -0.5015,-0.33548 -0.63546,-0.58004 -0.29956,-0.54688 -0.473,-1.14698 -0.63547,-1.74014 -0.0514,-0.18758 -0.20094,-0.51891 0,-0.58005 0.60286,-0.18343 1.27093,0 1.90639,0 0.42364,0 0.84727,0 1.27092,0 2.56983,0 2.77217,-0.0177 5.71914,0.58005 1.70512,0.34586 3.35045,0.96233 5.08367,1.16009 0.84074,0.0959 1.71102,-0.15168 2.54185,0 1.31365,0.23982 2.52959,0.80871 3.81276,1.16009 0.83652,0.22908 1.70209,0.36104 2.54184,0.58005 0.64406,0.16797 1.27092,0.3867 1.90638,0.58005 1.30446,0.3969 2.47947,0.46619 3.1773,1.74014 0.18945,0.34587 -0.10275,0.78494 0,1.16009 0.11487,0.41943 0.52058,0.74067 0.63546,1.1601 0.12497,0.45627 0,2.87707 0,3.48028 0,3.09358 0,6.18717 0,9.28075"
       id="path7529"
       inkscape:connector-curvature="0" />
    <text
       xml:space="preserve"
       style="font-size:40px;font-style:normal;font-weight:normal;text-align:center;line-height:125%;letter-spacing:0px;word-spacing:0px;text-anchor:middle;fill:#000000;fill-opacity:1;stroke:none;font-family:Sans"
       x="144.20061"
       y="579.93433"
       id="text7531"
       sodipodi:linespacing="125%"><tspan
         id="tspan7535"
         sodipodi:role="line"
         x="144.20061"
         y="579.93433"
         style="font-size:15px;font-style:italic;font-variant:normal;font-weight:bold;font-stretch:normal;text-align:center;text-anchor:middle;font-family:Avenir Next;-inkscape-font-specification:Avenir Next Bold Italic">Brine</tspan><tspan
         sodipodi:role="line"
         x="144.20061"
         y="598.68433"
         style="font-size:15px;font-style:italic;font-variant:normal;font-weight:bold;font-stretch:normal;text-align:center;text-anchor:middle;font-family:Avenir Next;-inkscape-font-specification:Avenir Next Bold Italic"
         id="tspan7539">Exclusion</tspan></text>
    <path
       sodipodi:nodetypes="csszczzc"
       inkscape:connector-curvature="0"
       id="path7561"
       d="m 994.19213,311.34513 c 0,0 -236.17366,-14.14212 -278.60007,-15.55634 -21.21321,-0.70711 -67.61802,-32.22469 -101.24645,-42.65024 -23.84974,-7.39394 -52.92322,-32.75512 -65.63075,-33.0102 -12.70753,-0.25508 -239.1897,-34.8011 -213.54625,37.47667 4.24264,36.76955 184.47808,36.86238 216.37468,50.91169 31.8966,14.04931 30.51506,25.11505 69.29646,43.74011 38.7814,18.62506 371.93817,36.76955 371.93817,36.76955"
       style="fill:none;stroke:#000000;stroke-width:2;stroke-linecap:butt;stroke-linejoin:miter;stroke-miterlimit:4;stroke-opacity:1;stroke-dasharray:none;marker-end:none"
       transform="translate(0,308.2677)" />
    <text
       xml:space="preserve"
       style="font-size:40px;font-style:normal;font-weight:normal;text-align:center;line-height:125%;letter-spacing:0px;word-spacing:0px;text-anchor:middle;fill:#000000;fill-opacity:1;stroke:none;font-family:Sans"
       x="121.14662"
       y="669.54126"
       id="text7798"
       sodipodi:linespacing="125%"><tspan
         sodipodi:role="line"
         id="tspan7800"
         x="121.14662"
         y="669.54126"
         style="font-size:24px;font-style:normal;font-variant:normal;font-weight:300;font-stretch:normal;text-align:center;text-anchor:middle;font-family:Avenir;-inkscape-font-specification:Avenir Light">Continental</tspan><tspan
         sodipodi:role="line"
         x="121.14662"
         y="699.54126"
         style="font-size:24px;font-style:normal;font-variant:normal;font-weight:300;font-stretch:normal;text-align:center;text-anchor:middle;font-family:Avenir;-inkscape-font-specification:Avenir Light"
         id="tspan7802">Shelf</tspan></text>
    <text
       sodipodi:linespacing="125%"
       id="text7804"
       y="907.0849"
       x="838.19708"
       style="font-size:40px;font-style:normal;font-weight:normal;text-align:center;line-height:125%;letter-spacing:0px;word-spacing:0px;text-anchor:middle;fill:#000000;fill-opacity:1;stroke:none;font-family:Sans"
       xml:space="preserve"><tspan
         style="font-size:24px;font-style:normal;font-variant:normal;font-weight:300;font-stretch:normal;text-align:center;text-anchor:middle;font-family:Avenir;-inkscape-font-specification:Avenir Light"
         y="907.0849"
         x="838.19708"
         id="tspan7806"
         sodipodi:role="line">Mid-Ocean</tspan><tspan
         id="tspan7808"
         style="font-size:24px;font-style:normal;font-variant:normal;font-weight:300;font-stretch:normal;text-align:center;text-anchor:middle;font-family:Avenir;-inkscape-font-specification:Avenir Light"
         y="937.0849"
         x="838.19708"
         sodipodi:role="line">Ridge</tspan></text>
    <g
       id="g8210"
       transform="matrix(0.77230588,0,0,0.77230588,277.26337,80.009138)">
      <text
         sodipodi:linespacing="125%"
         id="text7810"
         y="390.14166"
         x="793.26929"
         style="font-size:40px;font-style:normal;font-weight:normal;line-height:125%;letter-spacing:0px;word-spacing:0px;fill:#000000;fill-opacity:1;stroke:none;font-family:Sans"
         xml:space="preserve"><tspan
           style="font-style:normal;font-variant:normal;font-weight:300;font-stretch:normal;font-family:Avenir;-inkscape-font-specification:Avenir Light"
           y="390.14166"
           x="793.26929"
           id="tspan7812"
           sodipodi:role="line">North</tspan></text>
      <path
         inkscape:connector-curvature="0"
         id="path7814"
         d="m 793.86747,398.96291 124.68682,0"
         style="fill:none;stroke:#000000;stroke-width:3.25510383;stroke-linecap:butt;stroke-linejoin:miter;stroke-miterlimit:4;stroke-opacity:1;stroke-dasharray:none;marker-end:url(#Arrow1Mend)" />
    </g>
    <text
       sodipodi:linespacing="125%"
       id="text8217"
       y="381.31784"
       x="65.347382"
       style="font-size:30.8922348px;font-style:normal;font-weight:normal;line-height:125%;letter-spacing:0px;word-spacing:0px;fill:#000000;fill-opacity:1;stroke:none;font-family:Sans"
       xml:space="preserve"><tspan
         style="font-style:normal;font-variant:normal;font-weight:300;font-stretch:normal;font-family:Avenir;-inkscape-font-specification:Avenir Light"
         y="381.31784"
         x="65.347382"
         id="tspan8219"
         sodipodi:role="line">South</tspan></text>
    <path
       inkscape:connector-curvature="0"
       id="path8221"
       d="m 147.99118,388.13054 -96.296363,0"
       style="fill:none;stroke:#000000;stroke-width:2.5139358;stroke-linecap:butt;stroke-linejoin:miter;stroke-miterlimit:4;stroke-opacity:1;stroke-dasharray:none;marker-end:url(#Arrow1Mend)" />
    <rect
       style="fill:url(#radialGradient8252);fill-opacity:1;stroke:none;stroke-width:2.59999989999999981;stroke-linejoin:round;stroke-miterlimit:4;stroke-opacity:1;stroke-dasharray:none;stroke-dashoffset:0;filter:url(#filter8258)"
       id="rect8244"
       width="129.26796"
       height="77.339806"
       x="508.233"
       y="244.36743"
       transform="translate(4.5309175,350.13376)" />
    <text
       sodipodi:linespacing="125%"
       id="text8236"
       y="610.98401"
       x="577.45148"
       style="font-size:40px;font-style:normal;font-weight:normal;text-align:center;line-height:125%;letter-spacing:0px;word-spacing:0px;text-anchor:middle;fill:#000000;fill-opacity:1;stroke:none;font-family:Sans"
       xml:space="preserve"><tspan
         style="font-size:24px;font-style:normal;font-variant:normal;font-weight:300;font-stretch:normal;text-align:center;text-anchor:middle;font-family:Avenir;-inkscape-font-specification:Avenir Light"
         y="610.98401"
         x="577.45148"
         id="tspan8238"
         sodipodi:role="line">Antarctic</tspan><tspan
         id="tspan8240"
         style="font-size:24px;font-style:normal;font-variant:normal;font-weight:300;font-stretch:normal;text-align:center;text-anchor:middle;font-family:Avenir;-inkscape-font-specification:Avenir Light"
         y="640.98401"
         x="577.45148"
         sodipodi:role="line">Circumpolar</tspan><tspan
         style="font-size:24px;font-style:normal;font-variant:normal;font-weight:300;font-stretch:normal;text-align:center;text-anchor:middle;font-family:Avenir;-inkscape-font-specification:Avenir Light"
         y="670.98401"
         x="577.45148"
         sodipodi:role="line"
         id="tspan8242">Current</tspan></text>
  </g>
</svg>
