<?xml version="1.0" encoding="UTF-8" standalone="no"?>
<!-- Created with Inkscape (http://www.inkscape.org/) -->

<svg
   xmlns:dc="http://purl.org/dc/elements/1.1/"
   xmlns:cc="http://creativecommons.org/ns#"
   xmlns:rdf="http://www.w3.org/1999/02/22-rdf-syntax-ns#"
   xmlns:svg="http://www.w3.org/2000/svg"
   xmlns="http://www.w3.org/2000/svg"
   xmlns:sodipodi="http://sodipodi.sourceforge.net/DTD/sodipodi-0.dtd"
   xmlns:inkscape="http://www.inkscape.org/namespaces/inkscape"
   width="586.01813"
   height="942.24231"
   id="svg2"
   version="1.1"
   inkscape:version="0.48.2 r9819"
   sodipodi:docname="New document 1">
  <defs
     id="defs4">
    <marker
       inkscape:stockid="Arrow2Lend"
       orient="auto"
       refY="0"
       refX="0"
       id="Arrow2Lend"
       style="overflow:visible">
      <path
         id="path3791"
         style="font-size:12px;fill-rule:evenodd;stroke-width:0.625;stroke-linejoin:round"
         d="M 8.7185878,4.0337352 -2.2072895,0.01601326 8.7185884,-4.0017078 c -1.7454984,2.3720609 -1.7354408,5.6174519 -6e-7,8.035443 z"
         transform="matrix(-1.1,0,0,-1.1,-1.1,0)"
         inkscape:connector-curvature="0" />
    </marker>
    <marker
       inkscape:stockid="Arrow1Mstart"
       orient="auto"
       refY="0"
       refX="0"
       id="Arrow1Mstart"
       style="overflow:visible">
      <path
         id="path3776"
         d="M 0,0 5,-5 -12.5,0 5,5 0,0 z"
         style="fill-rule:evenodd;stroke:#000000;stroke-width:1pt;marker-start:none"
         transform="matrix(0.4,0,0,0.4,4,0)"
         inkscape:connector-curvature="0" />
    </marker>
    <marker
       inkscape:stockid="Arrow1Mend"
       orient="auto"
       refY="0"
       refX="0"
       id="Arrow1Mend"
       style="overflow:visible">
      <path
         id="path3779"
         d="M 0,0 5,-5 -12.5,0 5,5 0,0 z"
         style="fill-rule:evenodd;stroke:#000000;stroke-width:1pt;marker-start:none"
         transform="matrix(-0.4,0,0,-0.4,-4,0)"
         inkscape:connector-curvature="0" />
    </marker>
    <marker
       inkscape:stockid="Arrow1Lend"
       orient="auto"
       refY="0"
       refX="0"
       id="Arrow1Lend"
       style="overflow:visible">
      <path
         id="path3773"
         d="M 0,0 5,-5 -12.5,0 5,5 0,0 z"
         style="fill-rule:evenodd;stroke:#000000;stroke-width:1pt;marker-start:none"
         transform="matrix(-0.8,0,0,-0.8,-10,0)"
         inkscape:connector-curvature="0" />
    </marker>
  </defs>
  <sodipodi:namedview
     id="base"
     pagecolor="#ffffff"
     bordercolor="#666666"
     borderopacity="1.0"
     inkscape:pageopacity="0.0"
     inkscape:pageshadow="2"
     inkscape:zoom="0.60245418"
     inkscape:cx="346.35989"
     inkscape:cy="440.91867"
     inkscape:document-units="px"
     inkscape:current-layer="layer1"
     showgrid="false"
     fit-margin-top="0"
     fit-margin-left="0"
     fit-margin-right="0"
     fit-margin-bottom="0"
     inkscape:window-width="1440"
     inkscape:window-height="852"
     inkscape:window-x="0"
     inkscape:window-y="0"
     inkscape:window-maximized="1" />
  <metadata
     id="metadata7">
    <rdf:RDF>
      <cc:Work
         rdf:about="">
        <dc:format>image/svg+xml</dc:format>
        <dc:type
           rdf:resource="http://purl.org/dc/dcmitype/StillImage" />
        <dc:title></dc:title>
      </cc:Work>
    </rdf:RDF>
  </metadata>
  <g
     inkscape:label="Layer 1"
     inkscape:groupmode="layer"
     id="layer1"
     transform="translate(-25.687354,-24.857423)">
    <g
       id="g3759"
       transform="translate(-15.768834,8)">
      <path
         transform="matrix(1,0,0,-1,-59.755581,859.81643)"
         d="m 293.79827,400.03043 c 0,50.41987 -40.87338,91.29325 -91.29325,91.29325 -50.41987,0 -91.29325,-40.87338 -91.29325,-91.29325 0,-50.41987 40.87338,-91.29326 91.29325,-91.29326 50.41987,0 91.29325,40.87339 91.29325,91.29326 z"
         sodipodi:ry="91.293251"
         sodipodi:rx="91.293251"
         sodipodi:cy="400.03043"
         sodipodi:cx="202.50502"
         id="path2985"
         style="fill:none;stroke:#000000;stroke-width:20;stroke-linejoin:round;stroke-miterlimit:4;stroke-opacity:1;stroke-dasharray:none;stroke-dashoffset:0"
         sodipodi:type="arc" />
      <path
         sodipodi:type="arc"
         style="fill:none;stroke:#000000;stroke-width:20;stroke-linejoin:round;stroke-miterlimit:4;stroke-opacity:1;stroke-dasharray:none;stroke-dashoffset:0"
         id="path3755"
         sodipodi:cx="202.50502"
         sodipodi:cy="400.03043"
         sodipodi:rx="91.293251"
         sodipodi:ry="91.293251"
         d="m 293.79827,400.03043 c 0,50.41987 -40.87338,91.29325 -91.29325,91.29325 -50.41987,0 -91.29325,-40.87338 -91.29325,-91.29325 0,-50.41987 40.87338,-91.29326 91.29325,-91.29326 50.41987,0 91.29325,40.87339 91.29325,91.29326 z"
         transform="matrix(1,0,0,-1,323.67607,859.81643)" />
    </g>
    <path
       sodipodi:type="arc"
       style="fill:none;stroke:#ff2525;stroke-width:20;stroke-linejoin:round;stroke-miterlimit:4;stroke-opacity:1;stroke-dasharray:none;stroke-dashoffset:0"
       id="path3757"
       sodipodi:cx="202.50502"
       sodipodi:cy="400.03043"
       sodipodi:rx="91.293251"
       sodipodi:ry="91.293251"
       d="m 293.79827,400.03043 c 0,50.41987 -40.87338,91.29325 -91.29325,91.29325 -50.41987,0 -91.29325,-40.87338 -91.29325,-91.29325 0,-50.41987 40.87338,-91.29326 91.29325,-91.29326 50.41987,0 91.29325,40.87339 91.29325,91.29326 z"
       transform="matrix(1,0,0,-1,116.19141,526.1811)" />
    <path
       style="fill:none;stroke:#000000;stroke-width:10;stroke-linecap:butt;stroke-linejoin:miter;stroke-miterlimit:4;stroke-opacity:1;stroke-dasharray:none;marker-end:url(#Arrow1Mend)"
       d="M 243.44502,230.72294 177.04993,355.21373"
       id="path3765"
       inkscape:connector-curvature="0" />
    <path
       inkscape:connector-curvature="0"
       id="path4579"
       d="m 393.94785,230.72294 66.39509,124.49079"
       style="fill:none;stroke:#000000;stroke-width:10;stroke-linecap:butt;stroke-linejoin:miter;stroke-miterlimit:4;stroke-opacity:1;stroke-dasharray:none;marker-end:url(#Arrow1Mend)" />
    <path
       style="fill:none;stroke:#000000;stroke-width:6;stroke-linecap:butt;stroke-linejoin:round;stroke-miterlimit:4;stroke-opacity:1;stroke-dasharray:6, 6;stroke-dashoffset:0;marker-start:url(#Arrow1Mstart);marker-mid:none;marker-end:url(#Arrow1Mend)"
       d="m 114.53153,597.55581 c 0,0 43.61063,366.54395 204.1649,366.54395 160.55427,0 204.1649,-366.54395 204.1649,-366.54395"
       id="path4587"
       inkscape:connector-curvature="0"
       sodipodi:nodetypes="czc" />
  </g>
</svg>
